<svg width="24" height="19" viewBox="0 0 24 19" fill="none" xmlns="http://www.w3.org/2000/svg">
<path d="M20.75 0.75H3.25C1.84375 0.75 0.75 1.88281 0.75 3.25V15.75C0.75 17.1562 1.84375 18.25 3.25 18.25H20.75C22.1172 18.25 23.25 17.1562 23.25 15.75V3.25C23.25 1.88281 22.1172 0.75 20.75 0.75ZM21.375 15.75C21.375 16.1016 21.0625 16.375 20.75 16.375H3.25C2.89844 16.375 2.625 16.1016 2.625 15.75V3.25C2.625 2.9375 2.89844 2.625 3.25 2.625H20.75C21.0625 2.625 21.375 2.9375 21.375 3.25V15.75ZM5.4375 4.5C4.89062 4.5 4.5 4.92969 4.5 5.4375V13.5625C4.5 14.1094 4.89062 14.5 5.39844 14.5C5.94531 14.5 6.375 14.1094 6.375 13.5625V5.4375C6.375 4.92969 5.94531 4.5 5.4375 4.5ZM8.25 4.5C7.89844 4.5 7.625 4.8125 7.625 5.125V13.875C7.625 14.2266 7.89844 14.5 8.25 14.5C8.5625 14.5 8.875 14.2266 8.875 13.875V5.125C8.875 4.8125 8.5625 4.5 8.25 4.5ZM18.8359 4.5C18.5234 4.5 18.25 4.8125 18.25 5.125V13.875C18.25 14.2266 18.5234 14.5 18.8359 14.5C19.1484 14.5 19.4219 14.2266 19.4219 13.9141V5.16406C19.4609 4.8125 19.1875 4.5 18.8359 4.5ZM15.4375 4.5C14.8906 4.5 14.5 4.92969 14.5 5.4375V13.5625C14.5 14.0703 14.8906 14.4609 15.4375 14.4609C15.9453 14.4609 16.375 14.0312 16.375 13.5625V5.4375C16.375 4.92969 15.9453 4.5 15.4375 4.5ZM11.0625 4.5C10.5156 4.5 10.125 4.92969 10.125 5.4375V13.5625C10.125 14.1094 10.5156 14.5 11.0625 14.5C11.5703 14.5 12 14.1094 12 13.6016V5.4375C12 4.92969 11.5703 4.5 11.0625 4.5Z" fill="#78B9F3"/>
</svg>
