<svg width="8" height="9" viewBox="0 0 8 9" fill="none" xmlns="http://www.w3.org/2000/svg">
<path d="M5.1875 4.4875L7.8875 1.8125C8.0375 1.6625 8.0375 1.3875 7.8875 1.2375L7.2625 0.6125C7.1125 0.4625 6.8375 0.4625 6.6875 0.6125L4.0125 3.3125L1.3125 0.6125C1.1625 0.4625 0.8875 0.4625 0.7375 0.6125L0.1125 1.2375C-0.0375 1.3875 -0.0375 1.6625 0.1125 1.8125L2.8125 4.4875L0.1125 7.1875C-0.0375 7.3375 -0.0375 7.6125 0.1125 7.7625L0.7375 8.3875C0.8875 8.5375 1.1625 8.5375 1.3125 8.3875L4.0125 5.6875L6.6875 8.3875C6.8375 8.5375 7.1125 8.5375 7.2625 8.3875L7.8875 7.7625C8.0375 7.6125 8.0375 7.3375 7.8875 7.1875L5.1875 4.4875Z" fill="white"/>
</svg>
