<svg width="24" height="24" viewBox="0 0 24 24" fill="none" xmlns="http://www.w3.org/2000/svg">
<path d="M12 0C5.37097 0 0 5.37097 0 12C0 18.629 5.37097 24 12 24C18.629 24 24 18.629 24 12C24 5.37097 18.629 0 12 0ZM22.4516 12C22.4516 17.7581 17.7581 22.4516 12 22.4516C6.24194 22.4516 1.54839 17.8065 1.54839 12C1.54839 6.29032 6.19355 1.54839 12 1.54839C17.7097 1.54839 22.4516 6.24194 22.4516 12ZM12.3871 16.2097L17.9516 10.6452C18.1935 10.4032 18.1935 10.0645 17.9516 9.82258L17.6129 9.48387C17.371 9.24193 17.0323 9.24193 16.7903 9.48387L12 14.2742L7.16129 9.48387C6.91935 9.24193 6.58065 9.24193 6.33871 9.48387L6 9.82258C5.75806 10.0645 5.75806 10.4032 6 10.6452L11.5645 16.2097C11.8065 16.4516 12.1452 16.4516 12.3871 16.2097Z" fill="#919291"/>
</svg>
