<svg width="14" height="12" viewBox="0 0 14 12" fill="none" xmlns="http://www.w3.org/2000/svg">
<path d="M5.25 10.25H0.71875C0.3125 10.25 0 10.5938 0 11C0 11.4375 0.3125 11.75 0.71875 11.75H5.25C5.65625 11.75 6 11.4375 6 11C6 10.5938 5.65625 10.25 5.25 10.25ZM13.25 0.25H0.71875C0.3125 0.25 0 0.59375 0 1C0 1.375 0.3125 1.75 0.71875 1.75H13.25C13.6562 1.75 14 1.4375 14 1.03125C14 0.65625 13.6562 0.25 13.25 0.25ZM9.25 5.25H0.71875C0.3125 5.25 0 5.59375 0 6C0 6.4375 0.3125 6.75 0.71875 6.75H9.21875C9.65625 6.75 10 6.4375 10 6C10 5.59375 9.65625 5.25 9.25 5.25Z" fill="#78B9F3"/>
</svg>
