<svg width="15" height="16" viewBox="0 0 15 16" fill="none" xmlns="http://www.w3.org/2000/svg">
<path d="M4.85422 3.2C5.7277 3.2 6.4332 2.5 6.4332 1.6C6.4332 0.733333 5.7277 0 4.85422 0C3.94715 0 3.24165 0.733333 3.24165 1.6C3.24165 2.5 3.94715 3.2 4.85422 3.2ZM13.9921 13.8667H13.1187L11.7413 10.3C11.6069 9.9 11.2037 9.6 10.767 9.6H7.44106L7.23949 8.53333H9.92711C10.5318 8.53333 11.0022 8.06667 11.0022 7.46667C11.0022 6.9 10.4982 6.4 9.92711 6.4H6.83634L6.70196 5.6C6.53399 4.73333 5.6941 4.13333 4.82063 4.3C3.94715 4.46667 3.34243 5.3 3.51041 6.16667L4.2831 10.4333C4.48467 11.2 5.15658 11.7333 5.89568 11.7333C5.92927 11.7333 5.99646 11.7333 6.06365 11.7333C6.13084 11.7333 6.16444 11.7333 6.19803 11.7333H9.9943L11.3717 15.3333C11.5061 15.7333 11.9092 16 12.3796 16H13.9585C14.5297 16 15 15.5333 15 14.9333C15 14.3667 14.5633 13.8667 13.9921 13.8667ZM8.34813 12.8H5.35815C4.3167 12.8 3.44322 12.1 3.24165 11.0667L2.133 5.16667C2.03222 4.56667 1.4611 4.2 0.889977 4.3C0.285262 4.4 -0.0842866 4.96667 0.0164993 5.53333L1.12514 11.4667C1.52829 13.5 3.30884 14.9333 5.35815 14.9333H8.34813C8.91925 14.9333 9.38959 14.4667 9.38959 13.8667C9.38959 13.3 8.91925 12.8 8.34813 12.8Z" fill="#78B9F3"/>
</svg>
