<svg width="16" height="12" viewBox="0 0 16 12" fill="none" xmlns="http://www.w3.org/2000/svg">
<path d="M8 0C3.58333 0 0 3.44766 0 7.6971C0 9.11359 0.388889 10.4499 1.08333 11.5724C1.22222 11.8396 1.52778 12 1.83333 12H14.1389C14.4444 12 14.75 11.8396 14.9167 11.5724C15.5833 10.4499 16 9.11359 16 7.6971C16 3.44766 12.4167 0 8 0ZM8 1.71047C8.47222 1.71047 8.88889 2.11136 8.88889 2.5657C8.88889 3.04677 8.47222 3.42094 8 3.42094C7.5 3.42094 7.11111 3.04677 7.11111 2.5657C7.11111 2.11136 7.5 1.71047 8 1.71047ZM2.66667 9.40757C2.16667 9.40757 1.77778 9.03341 1.77778 8.55234C1.77778 8.098 2.16667 7.6971 2.66667 7.6971C3.13889 7.6971 3.55556 8.098 3.55556 8.55234C3.55556 9.03341 3.13889 9.40757 2.66667 9.40757ZM9.52778 10.2628H6.44444C6.30556 10.0223 6.22222 9.72828 6.22222 9.40757C6.22222 9.08686 6.30556 8.79287 6.47222 8.55234L3.44444 4.67706C3.22222 4.38307 3.30556 3.98218 3.58333 3.76837C3.88889 3.55457 4.30556 3.60802 4.52778 3.902L7.52778 7.77728C7.69444 7.72383 7.83333 7.6971 8 7.6971C8.97222 7.6971 9.77778 8.47216 9.77778 9.40757C9.77778 9.72828 9.66667 10.0223 9.52778 10.2628ZM11.1111 4.27617C11.1111 3.82183 11.5 3.42094 12 3.42094C12.4722 3.42094 12.8889 3.82183 12.8889 4.27617C12.8889 4.75724 12.4722 5.1314 12 5.1314C11.5 5.1314 11.1111 4.75724 11.1111 4.27617ZM13.3333 9.40757C12.8333 9.40757 12.4444 9.03341 12.4444 8.55234C12.4444 8.098 12.8333 7.6971 13.3333 7.6971C13.8056 7.6971 14.2222 8.098 14.2222 8.55234C14.2222 9.03341 13.8056 9.40757 13.3333 9.40757Z" fill="#78B9F3"/>
</svg>
