<svg width="16" height="12" viewBox="0 0 16 12" fill="none" xmlns="http://www.w3.org/2000/svg">
<path d="M15.923 10.2819L12.4263 0.832215C12.2321 0.322148 11.7325 0 11.1775 0H8.90192V2.14765C8.90192 2.36242 8.67991 2.57718 8.4579 2.57718H7.56986C7.3201 2.57718 7.12584 2.36242 7.12584 2.14765V0H4.82248C4.26746 0 3.76794 0.322148 3.57368 0.832215L0.0770228 10.2819C-0.228241 11.1409 0.410038 12 1.35358 12H7.12584V9.85235C7.12584 9.63758 7.3201 9.42282 7.56986 9.42282H8.4579C8.67991 9.42282 8.90192 9.63758 8.90192 9.85235V12H14.6464C15.59 12 16.2282 11.1409 15.923 10.2819ZM8.90192 7.27517C8.90192 7.51678 8.67991 7.7047 8.4579 7.7047H7.56986C7.3201 7.7047 7.12584 7.51678 7.12584 7.27517V4.69799C7.12584 4.48322 7.3201 4.26846 7.56986 4.26846H8.4579C8.67991 4.26846 8.90192 4.48322 8.90192 4.69799V7.27517Z" fill="#78B9F3"/>
</svg>
