<svg width="16" height="16" viewBox="0 0 16 16" fill="none" xmlns="http://www.w3.org/2000/svg">
<path d="M16 1.86666C16 0.806474 15.1162 -0.0473073 14.0451 0.00203642C13.0968 0.0457239 12.3237 0.809786 12.2698 1.7576C12.2248 2.5481 12.6722 3.23932 13.3334 3.55344V6.13332C13.3334 6.72241 12.8558 7.19997 12.2667 7.19997H9.68683C9.50242 6.81188 9.18814 6.49757 8.80005 6.31319V3.55344C9.46123 3.23929 9.90858 2.5481 9.86361 1.7576C9.8097 0.809786 9.03664 0.0457239 8.0883 0.00203642C7.01723 -0.0472761 6.13339 0.806474 6.13339 1.86666C6.13339 2.61126 6.56945 3.25385 7.20005 3.55344V6.31322C6.81195 6.49763 6.49764 6.81191 6.31326 7.20001H2.66667V3.55344C3.32786 3.23929 3.7752 2.5481 3.73023 1.7576C3.67633 0.809786 2.90326 0.0457239 1.95492 0.00203642C0.883858 -0.0472761 1.39532e-05 0.806474 1.39532e-05 1.86666C1.39532e-05 2.61126 0.436076 3.25385 1.06667 3.55344V12.4465C0.405483 12.7607 -0.041861 13.4519 0.0031077 14.2424C0.057014 15.1902 0.830076 15.9543 1.77842 15.9979C2.84948 16.0473 3.73333 15.1935 3.73333 14.1333C3.73333 13.3887 3.29726 12.7461 2.66667 12.4465V8.8H6.3132C6.49761 9.1881 6.81189 9.50241 7.19998 9.68679V12.4466C6.5388 12.7607 6.09145 13.4519 6.13642 14.2424C6.19033 15.1902 6.96339 15.9543 7.91173 15.998C8.9828 16.0473 9.86664 15.1935 9.86664 14.1333C9.86664 13.3888 9.43058 12.7462 8.79998 12.4466V9.68679C9.18808 9.50238 9.50239 9.1881 9.68676 8.8H12.2666C13.7394 8.8 14.9333 7.6061 14.9333 6.13335V3.55344C15.564 3.25385 16 2.61126 16 1.86666V1.86666Z" fill="#78B9F3"/>
</svg>
